<svg xmlns="http://www.w3.org/2000/svg" viewBox="0 0 601.519 601.519">
  <path d="M593.691 460.242L141.277 7.824c-10.472-10.433-27.41-10.433-37.89 0L7.824 103.391c-10.433 10.476-10.433 27.414 0 37.886l452.418 452.414c10.469 10.438 27.414 10.438 37.883 0l95.566-95.558c10.438-10.477 10.438-27.422 0-37.89zm-11.05 26.836l-95.563 95.563c-4.375 4.324-11.414 4.324-15.789 0l-40.828-40.817 55.68-55.683a7.806 7.806 0 0 0 0-11.043 7.8 7.8 0 0 0-11.043 0l-55.743 55.675-28.964-28.957 24.968-24.972c3.047-3.051 3.047-7.996 0-11.051a7.823 7.823 0 0 0-11.05 0l-24.97 24.969-28.648-28.899 24.965-24.968a7.922 7.922 0 0 0 .098-11.204c-3.07-3.12-8.086-3.164-11.2-.093l-24.972 24.968-28.965-28.964 55.68-55.68c3.05-3.047 3.05-7.992 0-11.047a7.806 7.806 0 0 0-11.043 0l-55.742 55.992-28.965-28.96 24.965-24.97a7.808 7.808 0 0 0 0-11.05c-3.047-3.047-7.992-3.047-11.047 0L259.5 370.852l-28.902-28.895 24.972-24.973c3.067-3.03 3.09-7.976.059-11.043-3.031-3.07-7.98-3.097-11.05-.062l-24.966 24.965-28.96-28.84 55.675-55.676a7.804 7.804 0 0 0 0-11.047 7.81 7.81 0 0 0-11.047 0l-55.683 55.68-28.649-28.902 24.969-24.965a7.92 7.92 0 0 0 .027-11.207c-3.082-3.102-8.101-3.121-11.199-.028l-24.969 24.97-28.957-28.97 24.965-24.964a7.81 7.81 0 0 0 0-11.047c-3.058-3.055-8-3.055-11.047 0L99.77 210.812l-29.024-28.644 55.672-55.68c3.066-3.05 3.086-8.011.035-11.078s-8.012-3.086-11.078-.035l-55.684 55.68-40.82-40.82c-4.32-4.383-4.32-11.423 0-15.798l95.567-95.562a11.16 11.16 0 0 1 7.925-3.297 11.17 11.17 0 0 1 7.93 3.297l452.41 452.414c4.328 4.375 4.328 11.414 0 15.79zm0 0"/>
  <path d="M70.305 70.313c-8.418 8.437-8.399 22.101.03 30.527 8.435 8.422 22.095 8.422 30.528 0 8.438-8.426 8.446-22.09.028-30.528-8.563-8.171-22.02-8.171-30.586 0zm19.539 19.535a6.242 6.242 0 1 1 0-8.493 6.233 6.233 0 0 1 0 8.493zm0 0"/>
</svg>